<?xml version="1.0" encoding="utf-8"?>
<!-- Generator: Adobe Illustrator 22.0.0, SVG Export Plug-In . SVG Version: 6.00 Build 0)  -->
<svg version="1.1" id="Capa_1" xmlns="http://www.w3.org/2000/svg" xmlns:xlink="http://www.w3.org/1999/xlink" x="0px" y="0px"
	 viewBox="0 0 512 512" style="enable-background:new 0 0 512 512;" xml:space="preserve">
<style type="text/css">
	.st0{fill:#FFFFFF;}
</style>
<g>
	<g>
		<path class="st0" d="M38,509c-19.3,0-35-15.7-35-35v-25.9c0-3.9,3.1-7,7-7h35.1l-6.1-5.3c-17.5-15-27.5-36.8-27.5-59.8
			c0-43.6,35.4-79,79-79s79,35.4,79,79c0,23-10,44.8-27.5,59.9l-6.1,5.3h108c3.9,0,7,3.1,7,7s-3.1,7-7,7H17V474c0,11.6,9.4,21,21,21
			h407.6l-2.4-4.4c-2.7-5.1-4.2-10.8-4.2-16.6v-18.9H329.7c-3.9,0-7-3.1-7-7s3.1-7,7-7H446c3.9,0,7,3.1,7,7V474c0,11.6,9.4,21,21,21
			s21-9.4,21-21V94c0-18.2-14.8-33-33-33h-50.7v15.5c0,14.9-12.1,27-27,27s-27-12.1-27-27V61h-174v15.5c0,14.9-12.1,27-27,27
			s-27-12.1-27-27V59.7l-3.8,1c-0.6,0.2-1.3,0.3-1.9,0.3H83.8c-18.2,0-33,14.8-33,33v36h363.5c3.9,0,7,3.1,7,7s-3.1,7-7,7H50.8
			v120.3c0,3.9-3.1,7-7,7s-7-3.1-7-7V94c0-25.9,21.1-47,47-47h39.8c0.6,0,1.2,0.1,1.9,0.3l3.8,1.1V30c0-14.9,12.1-27,27-27
			s27,12.1,27,27v17h174V30c0-14.9,12.1-27,27-27s27,12.1,27,27v17H462c25.9,0,47,21.1,47,47v380c0,19.3-15.7,35-35,35H38z
			 M90.5,311c-35.8,0-65,29.2-65,65s29.2,65,65,65s65-29.2,65-65S126.3,311,90.5,311z M384.3,17c-7.2,0-13,5.8-13,13v46.5
			c0,7.2,5.8,13,13,13s13-5.8,13-13V30C397.3,22.8,391.5,17,384.3,17z M156.3,17c-7.2,0-13,5.8-13,13v46.5c0,7.2,5.8,13,13,13
			s13-5.8,13-13V30C169.3,22.8,163.5,17,156.3,17z"/>
	</g>
</g>
<g>
	<g>
		<path class="st0" d="M461.2,144c-1.8,0-3.6-0.7-4.9-2.1c-1.3-1.3-2.1-3.1-2.1-4.9c0-1.8,0.7-3.6,2.1-4.9c1.3-1.3,3.1-2.1,4.9-2.1
			s3.6,0.7,4.9,2.1c1.3,1.3,2.1,3.1,2.1,4.9c0,1.8-0.7,3.6-2.1,4.9C464.9,143.3,463.1,144,461.2,144z"/>
	</g>
</g>
<g>
	<g>
		<path class="st0" d="M291.6,455.1c-1.8,0-3.7-0.7-4.9-2c-1.3-1.3-2.1-3.1-2.1-5c0-1.8,0.8-3.6,2.1-5c1.3-1.3,3.1-2,4.9-2
			s3.7,0.7,4.9,2c1.3,1.3,2.1,3.1,2.1,4.9s-0.8,3.6-2.1,5C295.2,454.4,293.4,455.1,291.6,455.1z"/>
	</g>
</g>
<g>
	<g>
		<path class="st0" d="M226.2,377c-19.3,0-35-15.7-35-35s15.7-35,35-35s35,15.7,35,35S245.5,377,226.2,377z M226.2,321
			c-11.6,0-21,9.4-21,21s9.4,21,21,21s21-9.4,21-21S237.8,321,226.2,321z"/>
	</g>
</g>
<g>
	<g>
		<path class="st0" d="M319.6,377c-19.3,0-35-15.7-35-35s15.7-35,35-35s35,15.7,35,35S338.9,377,319.6,377z M319.6,321
			c-11.6,0-21,9.4-21,21s9.4,21,21,21s21-9.4,21-21S331.2,321,319.6,321z"/>
	</g>
</g>
<g>
	<g>
		<path class="st0" d="M412.9,377c-19.3,0-35-15.7-35-35s15.7-35,35-35s35,15.7,35,35S432.2,377,412.9,377z M412.9,321
			c-11.6,0-21,9.4-21,21s9.4,21,21,21s21-9.4,21-21S424.5,321,412.9,321z"/>
	</g>
</g>
<g>
	<g>
		<path class="st0" d="M132.9,273c-19.3,0-35-15.7-35-35s15.7-35,35-35s35,15.7,35,35S152.2,273,132.9,273z M132.9,217
			c-11.6,0-21,9.4-21,21s9.4,21,21,21s21-9.4,21-21S144.5,217,132.9,217z"/>
	</g>
</g>
<g>
	<g>
		<path class="st0" d="M319.6,273c-19.3,0-35-15.7-35-35s15.7-35,35-35s35,15.7,35,35S338.9,273,319.6,273z M319.6,217
			c-11.6,0-21,9.4-21,21s9.4,21,21,21s21-9.4,21-21S331.2,217,319.6,217z"/>
	</g>
</g>
<g>
	<g>
		<path class="st0" d="M412.9,273c-19.3,0-35-15.7-35-35s15.7-35,35-35s35,15.7,35,35S432.2,273,412.9,273z M412.9,217
			c-11.6,0-21,9.4-21,21s9.4,21,21,21s21-9.4,21-21S424.5,217,412.9,217z"/>
	</g>
</g>
<g>
	<g>
		<path class="st0" d="M226.2,273c-19.3,0-35-15.7-35-35s15.7-35,35-35s35,15.7,35,35S245.5,273,226.2,273z M226.2,217
			c-11.6,0-21,9.4-21,21s9.4,21,21,21s21-9.4,21-21S237.8,217,226.2,217z"/>
	</g>
</g>
<g>
	<g>
		<path class="st0" d="M79.4,405.3c-1.9,0-3.6-0.7-5-2.1L56.2,385c-2.7-2.7-2.7-7.2,0-9.9c1.3-1.3,3.1-2.1,5-2.1s3.6,0.7,5,2.1
			l13.3,13.3l34.7-34.7c1.3-1.3,3.1-2,5-2s3.6,0.7,4.9,2c2.7,2.7,2.7,7.2,0,9.9l-39.6,39.6C83,404.6,81.3,405.3,79.4,405.3z"/>
	</g>
</g>
</svg>
