<svg xmlns="http://www.w3.org/2000/svg" viewBox="0 0 512 512">
  <path d="M38 509c-19.3 0-35-15.7-35-35v-25.9c0-3.9 3.1-7 7-7h35.1l-6.1-5.3c-17.5-15-27.5-36.8-27.5-59.8 0-43.6 35.4-79 79-79s79 35.4 79 79c0 23-10 44.8-27.5 59.9l-6.1 5.3h108c3.9 0 7 3.1 7 7s-3.1 7-7 7H17V474c0 11.6 9.4 21 21 21h407.6l-2.4-4.4c-2.7-5.1-4.2-10.8-4.2-16.6v-18.9H329.7c-3.9 0-7-3.1-7-7s3.1-7 7-7H446c3.9 0 7 3.1 7 7V474c0 11.6 9.4 21 21 21s21-9.4 21-21V94c0-18.2-14.8-33-33-33h-50.7v15.5c0 14.9-12.1 27-27 27s-27-12.1-27-27V61h-174v15.5c0 14.9-12.1 27-27 27s-27-12.1-27-27V59.7l-3.8 1c-.6.2-1.3.3-1.9.3H83.8c-18.2 0-33 14.8-33 33v36h363.5c3.9 0 7 3.1 7 7s-3.1 7-7 7H50.8v120.3c0 3.9-3.1 7-7 7s-7-3.1-7-7V94c0-25.9 21.1-47 47-47h39.8c.6 0 1.2.1 1.9.3l3.8 1.1V30c0-14.9 12.1-27 27-27s27 12.1 27 27v17h174V30c0-14.9 12.1-27 27-27s27 12.1 27 27v17H462c25.9 0 47 21.1 47 47v380c0 19.3-15.7 35-35 35H38zm52.5-198c-35.8 0-65 29.2-65 65s29.2 65 65 65 65-29.2 65-65-29.2-65-65-65zM384.3 17c-7.2 0-13 5.8-13 13v46.5c0 7.2 5.8 13 13 13s13-5.8 13-13V30c0-7.2-5.8-13-13-13zm-228 0c-7.2 0-13 5.8-13 13v46.5c0 7.2 5.8 13 13 13s13-5.8 13-13V30c0-7.2-5.8-13-13-13z"/>
  <path d="M461.2 144c-1.8 0-3.6-.7-4.9-2.1-1.3-1.3-2.1-3.1-2.1-4.9 0-1.8.7-3.6 2.1-4.9 1.3-1.3 3.1-2.1 4.9-2.1s3.6.7 4.9 2.1c1.3 1.3 2.1 3.1 2.1 4.9 0 1.8-.7 3.6-2.1 4.9-1.2 1.4-3 2.1-4.9 2.1zM291.6 455.1c-1.8 0-3.7-.7-4.9-2-1.3-1.3-2.1-3.1-2.1-5 0-1.8.8-3.6 2.1-5 1.3-1.3 3.1-2 4.9-2s3.7.7 4.9 2c1.3 1.3 2.1 3.1 2.1 4.9s-.8 3.6-2.1 5-3.1 2.1-4.9 2.1zM226.2 377c-19.3 0-35-15.7-35-35s15.7-35 35-35 35 15.7 35 35-15.7 35-35 35zm0-56c-11.6 0-21 9.4-21 21s9.4 21 21 21 21-9.4 21-21-9.4-21-21-21zM319.6 377c-19.3 0-35-15.7-35-35s15.7-35 35-35 35 15.7 35 35-15.7 35-35 35zm0-56c-11.6 0-21 9.4-21 21s9.4 21 21 21 21-9.4 21-21-9.4-21-21-21zM412.9 377c-19.3 0-35-15.7-35-35s15.7-35 35-35 35 15.7 35 35-15.7 35-35 35zm0-56c-11.6 0-21 9.4-21 21s9.4 21 21 21 21-9.4 21-21-9.4-21-21-21zM132.9 273c-19.3 0-35-15.7-35-35s15.7-35 35-35 35 15.7 35 35-15.7 35-35 35zm0-56c-11.6 0-21 9.4-21 21s9.4 21 21 21 21-9.4 21-21-9.4-21-21-21zM319.6 273c-19.3 0-35-15.7-35-35s15.7-35 35-35 35 15.7 35 35-15.7 35-35 35zm0-56c-11.6 0-21 9.4-21 21s9.4 21 21 21 21-9.4 21-21-9.4-21-21-21zM412.9 273c-19.3 0-35-15.7-35-35s15.7-35 35-35 35 15.7 35 35-15.7 35-35 35zm0-56c-11.6 0-21 9.4-21 21s9.4 21 21 21 21-9.4 21-21-9.4-21-21-21zM226.2 273c-19.3 0-35-15.7-35-35s15.7-35 35-35 35 15.7 35 35-15.7 35-35 35zm0-56c-11.6 0-21 9.4-21 21s9.4 21 21 21 21-9.4 21-21-9.4-21-21-21zM79.4 405.3c-1.9 0-3.6-.7-5-2.1L56.2 385c-2.7-2.7-2.7-7.2 0-9.9 1.3-1.3 3.1-2.1 5-2.1s3.6.7 5 2.1l13.3 13.3 34.7-34.7c1.3-1.3 3.1-2 5-2s3.6.7 4.9 2c2.7 2.7 2.7 7.2 0 9.9l-39.6 39.6c-1.5 1.4-3.2 2.1-5.1 2.1z"/>
</svg>