<?xml version="1.0" encoding="utf-8"?>
<!-- Generator: Adobe Illustrator 22.0.0, SVG Export Plug-In . SVG Version: 6.00 Build 0)  -->
<svg version="1.1" id="Layer_1" xmlns="http://www.w3.org/2000/svg" xmlns:xlink="http://www.w3.org/1999/xlink" x="0px" y="0px"
	 viewBox="0 0 511 511" style="enable-background:new 0 0 511 511;" xml:space="preserve">
<g id="surface1">
	<path d="M503.1,290.8l-59.7-70.1c-3.1-3.6-8.1-4.7-12.4-2.8s-6.8,6.5-6.1,11.2l3.3,21.9c-37.3-18-72.8-37.9-105.6-59.2
		c-43.9-28.5-84-59.9-118.9-93.4c-43.4-41.5-68-75.9-76.6-88.8c-3.2-4.8-8.1-8.1-13.8-9.2c-5.7-1.1-11.4,0.1-16.2,3.3
		c-9.7,6.6-12.4,20-5.8,29.7c11.6,17.4,37.7,53,82.1,95.5c36.9,35.4,79.1,68.6,125.4,98.7c36.3,23.6,75.6,45.4,117,65.1l-17.8,17.5
		c-3.4,3.3-4.2,8.4-1.9,12.6c1.9,3.5,5.4,5.5,9.2,5.5c0.8,0,1.6-0.1,2.4-0.3l89.8-20.2c3.6-0.8,6.5-3.4,7.7-7
		C506.2,297.4,505.5,293.6,503.1,290.8z M419.3,310.1l14.5-14.3c1.8-1.7,2.5-4.2,2.1-6.6c-0.4-2.4-2-4.5-4.2-5.5
		c-44.4-20.5-86.4-43.6-124.9-68.7c-45.5-29.5-86.9-62.1-123.2-96.9c-43.3-41.6-68.7-76.1-80-93c-2-3-1.2-7,1.8-9
		c1.1-0.7,2.4-1.1,3.7-1.1c0.4,0,0.9,0,1.3,0.1c1.7,0.3,3.2,1.3,4.2,2.8c8.9,13.3,34.3,48.7,78.7,91.3
		c35.7,34.1,76.4,66.1,121.2,95.1c37.1,24,77.5,46.3,120.1,66.2c2.5,1.2,5.4,0.9,7.6-0.8c2.2-1.7,3.3-4.4,2.9-7.1l-3.1-20.5l45,52.8
		L419.3,310.1z M491.7,300.5C491.7,300.5,491.7,300.5,491.7,300.5L491.7,300.5z"/>
	<path d="M486.4,458.9h-37.2v-12.6c0-4.1-3.3-7.5-7.5-7.5s-7.5,3.3-7.5,7.5v12.6h-41.7v-63.2h41.7v15.5c0,4.1,3.3,7.5,7.5,7.5
		s7.5-3.3,7.5-7.5V394c0-7.3-5.9-13.2-13.2-13.2h-45.3c-7.3,0-13.2,5.9-13.2,13.2v65h-35.1V310.3c0-7.3-5.9-13.2-13.2-13.2H284
		c-7.3,0-13.2,5.9-13.2,13.2v148.6h-35.1V226.4c0-7.3-5.9-13.2-13.2-13.2h-45.3c-7.3,0-13.2,5.9-13.2,13.2v232.5h-35.1V222.8
		c0-4.1-3.3-7.5-7.5-7.5c-4.1,0-7.5,3.3-7.5,7.5v236.1H72.2V144.8h41.7V188c0,4.1,3.4,7.5,7.5,7.5c4.1,0,7.5-3.4,7.5-7.5V143
		c0-7.3-5.9-13.2-13.2-13.2H70.4c-7.3,0-13.2,5.9-13.2,13.2v316H20.1C12.3,458.9,6,465.2,6,473v23.9c0,7.8,6.3,14.1,14.1,14.1h466.3
		c7.8,0,14.1-6.3,14.1-14.1V473C500.5,465.2,494.1,458.9,486.4,458.9z M285.8,312.1h41.7v146.8h-41.7V312.1z M179,228.2h41.7v230.7
		H179V228.2z M485.5,496H21v-22.1h464.5V496z"/>
</g>
</svg>
