<svg xmlns="http://www.w3.org/2000/svg" viewBox="0 0 487.3 487.3">
  <path d="M347.7 0h-288c-30.9 0-56 25.1-56 56v287.3c0 30.9 25.1 56 56 56h88v-16h-88c-22.1 0-40-17.9-40-40V208H71c4.7-.3 8.3-4.5 8-9.2-.1-.9-.3-1.8-.6-2.7-7.1-16.2.2-35.1 16.4-42.2s35.1.2 42.2 16.4c3.6 8.2 3.6 17.5 0 25.7-2 4.1-.2 9.1 3.9 11.1 1.1.5 2.2.8 3.4.8h51.4v48c-2.6-.5-5.3-.7-8-.7-26.5 0-48 21.5-48 48 0 19.1 11.3 36.4 28.8 44l6.4-14.7c-16.2-7-23.6-25.9-16.6-42.1 5.1-11.7 16.6-19.3 29.4-19.2 4.4 0 8.8.9 12.8 2.7 4 1.8 8.8-.1 10.5-4.1.4-1 .7-2.1.7-3.2V208h40.7c-.5 2.6-.7 5.3-.7 8 0 22.8 16.1 42.4 38.4 47l3.2-15.7c-14.9-3.1-25.6-16.2-25.6-31.4 0-4.4.9-8.8 2.7-12.8 1.8-4-.1-8.8-4.1-10.5-1-.4-2.1-.7-3.2-.7h-51.4v-40.7c2.6.5 5.3.7 8 .7 26.5 0 48-21.5 48-48s-21.5-48-48-48c-2.7 0-5.4.2-8 .7V16h136c22.1 0 40 17.9 40 40v136h-51.4c-4.4 0-8 3.6-8 8 0 1.1.2 2.2.7 3.2 1.8 4 2.7 8.4 2.7 12.8h16c0-2.7-.2-5.4-.7-8h48.7c4.4 0 8-3.6 8-8V56c-.1-30.9-25.1-56-56-56zm-128 72c17.7 0 32 14.3 32 32s-14.3 32-32 32c-4.4 0-8.8-.9-12.8-2.7s-8.8.1-10.5 4.1c-.4 1-.7 2.1-.7 3.2v50.7H155c.4-2.4.6-4.9.6-7.3v-.4-.2c0-26.5-21.5-48-48-48s-48 21.5-48 48V184c0 2.5.2 4.9.6 7.3H19.7V56c0-22.1 17.9-40 40-40h136v51.4c0 4.4 3.6 8 8 8 1.1 0 2.2-.2 3.2-.7 4-1.8 8.3-2.7 12.8-2.7z"/>
  <path d="M466.5 343.9l-67.3-46.3-25.8-69c-1.5-4.1-6.1-6.2-10.3-4.7-.1.1-.3.1-.4.2l-52 23c-3.9 1.7-5.8 6.2-4.2 10.2.9 2.2 1.7 3.9 2.5 5.7s1.6 3.4 2.6 6c6.2 16.6-2.2 35.1-18.7 41.4-16.6 6.2-35-2.2-41.2-18.8-1.6-4.2-2.2-8.6-2-13s-3.2-8.2-7.6-8.4c-1.1-.1-2.2.1-3.2.5l-55.6 20.9c-4.1 1.6-6.2 6.2-4.7 10.3l20 53.3c-2.6.5-5.2 1.2-7.8 2.1-24.9 9.3-37.6 37-28.3 61.9s37 37.6 61.9 28.3c2.6-1 5-2.1 7.4-3.5l14.3 38.2c1.6 4.1 6.2 6.2 10.3 4.7l79.3-29.9c5 10.7 14.1 18.9 25.3 22.6l5.1-15.2c-6.6-2.2-12.1-6.9-15.3-13.1l24.1-9.1c7.9 22.3 29 37.2 52.7 37.1v-16c-22-.1-39.9-18-40-40 0-2.1-.8-4.2-2.3-5.7l-27.9-27.9c-4.1-4.2-4.6-10.7-1.1-15.4 2-2.8 5.2-4.5 8.6-4.7 3.4-.3 6.8 1 9.2 3.4l55.9 56 11.3-11.3-16.5-16.5c4.1-12.2 3.8-25.4-.7-37.4l-15-40 48.3 33.3c6.4 4.5 10.2 11.8 10.2 19.7V480h16V376.7c0-13.1-6.3-25.4-17.1-32.8zm-57.4 25.5c2.2 5.9 3 12.2 2.3 18.4l-26-26c-10.7-11-28.3-11.2-39.3-.5s-11.2 28.3-.5 39.3l.5.5 25.3 25.3-113 42.6-15.2-40.7c-.9-2.5-3.1-4.4-5.8-5-.6-.1-1.2-.2-1.7-.2-2.1 0-4.1.8-5.6 2.3-12.8 12.1-33.1 11.6-45.2-1.3-12.1-12.8-11.6-33.1 1.3-45.2 3-2.9 6.6-5.1 10.4-6.6 2.5-.9 5.2-1.5 7.9-1.8 1.7-.2 3.3-.3 5-.2 4.4.2 8.2-3.2 8.4-7.6.1-1.1-.1-2.2-.5-3.2l-20.9-55.8 38.1-14.3c5 26 30.2 43.1 56.2 38.1 2.7-.5 5.3-1.2 7.8-2.2 24.8-9.4 37.3-37.1 28.1-62-.7-2-1.4-3.5-2-4.9l36.8-16.3 47.6 127.3z"/>
</svg>