<svg xmlns="http://www.w3.org/2000/svg" viewBox="0 0 512 512">
  <path d="M131.8 80.1C70.2 80.1 20 130.2 20 191.8s50.1 111.7 111.7 111.7 111.7-50.1 111.7-111.7-50-111.7-111.6-111.7zm0 208.4c-53.3 0-96.7-43.4-96.7-96.7s43.4-96.7 96.7-96.7c53.3 0 96.7 43.4 96.7 96.7s-43.4 96.7-96.7 96.7z"/>
  <path d="M165.2 175.3c4.1 0 7.5-3.4 7.5-7.5v-8c0-17.4-14.2-31.6-31.6-31.6h-.5v-16.5c0-4.2-3.4-7.5-7.5-7.5s-7.5 3.4-7.5 7.5v16.7c-18 1.8-32.1 17-32.1 35.4 0 19.6 16 35.6 35.6 35.6h8c11.3 0 20.5 9.2 20.5 20.5s-9.2 20.5-20.5 20.5h-12c-9.1 0-16.5-7.4-16.5-16.5 0-4.1-3.4-7.5-7.5-7.5s-7.5 3.4-7.5 7.5c0 17.4 14.2 31.6 31.6 31.6h.5V272c0 4.1 3.4 7.5 7.5 7.5s7.5-3.4 7.5-7.5v-16.7c18-1.8 32.1-17 32.1-35.4 0-19.6-16-35.6-35.6-35.6h-8c-11.3 0-20.5-9.2-20.5-20.5s9.2-20.5 20.5-20.5h12c9.1 0 16.5 7.4 16.5 16.5v8c0 4.1 3.4 7.5 7.5 7.5zM252 367.7c4.1 0 7.5-3.4 7.5-7.5v-48.1c0-4.1-3.4-7.5-7.5-7.5H43.6c-4.2 0-7.5 3.4-7.5 7.5v40.6h-8.5c-4.1 0-7.5 3.4-7.5 7.5v48.1c0 4.1 3.4 7.5 7.5 7.5h8.5v33.1h-8.5c-4.1 0-7.5 3.4-7.5 7.5v48.1c0 4.1 3.4 7.5 7.5 7.5H236c4.1 0 7.5-3.4 7.5-7.5v-40.6h8.5c4.2 0 7.5-3.4 7.5-7.5v-48.1c0-4.1-3.4-7.5-7.5-7.5h-8.5v-33.1h8.5zM35.1 400.8v-33.1h193.4v33.1H35.1zM228.5 497H35.1v-33.1h193.4V497zm16-81.2v33.1H51.1v-33.1h193.4zM51.1 352.7v-33.1h193.4v33.1H51.1zM490.3 139L378.1 2.7c-3-3.6-8.6-3.6-11.6 0L254.2 139c-4 4.8-.4 12.3 5.8 12.3h48.6v233c0 4.1 3.4 7.5 7.5 7.5h112.2c4.1 0 7.5-3.4 7.5-7.5v-31.6c0-4.1-3.4-7.5-7.5-7.5s-7.5 3.4-7.5 7.5v24h-97.2v-233c0-4.1-3.4-7.5-7.5-7.5H276l96.3-116.9 96.3 116.9h-40.2c-4.1 0-7.5 3.4-7.5 7.5v173.4c0 4.1 3.4 7.5 7.5 7.5s7.5-3.4 7.5-7.5V151.3h48.6c6.2 0 9.8-7.5 5.8-12.3zM428.4 416.8H316.1c-4.1 0-7.5 3.4-7.5 7.5s3.4 7.5 7.5 7.5h112.2c4.1 0 7.5-3.4 7.5-7.5s-3.3-7.5-7.4-7.5zM428.4 456.9H316.1c-4.1 0-7.5 3.4-7.5 7.5s3.4 7.5 7.5 7.5h112.2c4.1 0 7.5-3.4 7.5-7.5s-3.3-7.5-7.4-7.5zM428.4 497H316.1c-4.1 0-7.5 3.4-7.5 7.5s3.4 7.5 7.5 7.5h112.2c4.1 0 7.5-3.4 7.5-7.5.1-4.2-3.3-7.5-7.4-7.5z"/>
</svg>