<svg xmlns="http://www.w3.org/2000/svg" viewBox="0 0 512 512">
  <path d="M512 398.9c0 24.1-7.5 47.1-21.6 66.5-2.4 3.4-7.1 4.1-10.5 1.7s-4.1-7.1-1.6-10.5c12.3-16.8 18.8-36.8 18.8-57.7 0-54.1-44-98.1-98.1-98.1s-98.1 44-98.1 98.1 44 98.1 98.1 98.1c20.5 0 40.2-6.3 56.8-18.1 3.4-2.4 8.1-1.6 10.5 1.8s1.6 8.1-1.8 10.5c-19.2 13.7-41.9 20.9-65.5 20.9-30.5 0-58.2-12.1-78.6-31.8-6.9 3.4-14.4 5.1-22.1 5.1h-248C22.5 485.3 0 462.8 0 435.1V89c0-27.7 22.5-50.2 50.3-50.2h95.2v-10c0-15.9 12.9-28.8 28.8-28.8C190.1 0 203 12.9 203 28.8v10h95.2c27.7 0 50.3 22.5 50.3 50.2v101c0 9.7-15 9.7-15 0V89c0-19.4-15.8-35.2-35.3-35.2h-48c.4.9.6 1.9.6 3v16.6h47.3c8.6 0 15.7 7 15.7 15.7v131c0 9.7-15 9.7-15 0V89c0-.4-.3-.7-.7-.7h-47.3v8.2c0 4.2-3.4 7.5-7.5 7.5H105.1c-4.1 0-7.5-3.3-7.5-7.5v-8.2H50.3c-.4 0-.7.3-.7.7v346.1c0 .4.3.7.7.7H292c-4-11.6-6.2-24-6.2-36.9 0-19.1 4.8-37.1 13.2-52.9 0-.3-.1-.6-.1-1v-39c0-9.7 15-9.7 15 0v18.4c5.8-6.6 12.4-12.6 19.6-17.7V271c0-9.7 15-9.7 15 0v26.7c15.2-7.6 32.3-11.9 50.5-11.9 62.3 0 113 50.7 113 113.1zm-213.8 71.4c3.9 0 7.8-.7 11.5-1.9-4.3-5.5-8.1-11.4-11.3-17.6H50.3c-8.7 0-15.7-7-15.7-15.7V89c0-8.6 7-15.7 15.7-15.7h47.3V56.7c0-1 .2-2.1.6-3h-48C30.8 53.8 15 69.6 15 89v346.1c0 19.4 15.8 35.3 35.3 35.3h247.9v-.1zM235.9 89V64.2h-40.4c-4.1 0-7.5-3.4-7.5-7.5v-28c0-7.5-6.3-13.7-13.8-13.7s-13.8 6.3-13.8 13.7v28c0 4.1-3.4 7.5-7.5 7.5h-40.4V89h123.4z"/>
  <path d="M492.1 154.8v43c0 9.7-15 9.7-15 0v-29.7l-95.6 95.6c-2.9 2.9-7.7 2.9-10.6 0l-28.3-28.3-145.9 145.9c-1.4 1.4-3.3 2.2-5.3 2.2s-3.9-.8-5.3-2.2l-28.7-28.7-58.7 58.7c-6.9 6.9-17.4-3.8-10.6-10.6l64-64c2.9-2.9 7.7-2.9 10.6 0l28.7 28.7 145.9-145.9c2.9-2.9 7.7-2.9 10.6 0l28.3 28.3 85.5-85.5h-18.1c-9.7 0-9.7-15 0-15h41c4.2 0 7.5 3.3 7.5 7.5zM456.6 421.8c8.5 4.6 1.5 17.8-7.1 13.2l-55.1-29.5c-2.4-1.3-4-3.9-4-6.6v-81.3c0-4.1 3.4-7.5 7.5-7.5s7.5 3.4 7.5 7.5v76.8l51.2 27.4zM255 210.4c9.7 0 9.7 15 0 15H93.4c-9.7 0-9.7-15 0-15H255zM252.4 155.2c9.7 0 9.7 15 0 15h-159c-9.7 0-9.7-15 0-15h159zM228 265.5c9.7 0 9.7 15 0 15H93.4c-9.7 0-9.7-15 0-15H228z"/>
</svg>