<svg xmlns="http://www.w3.org/2000/svg" viewBox="0 0 368 368">
  <path d="M184 365C84.2 365 3 283.8 3 184S84.2 3 184 3s181 81.2 181 181-81.2 181-181 181zm0-352C89.7 13 13 89.7 13 184s76.7 171 171 171 171-76.7 171-171S278.3 13 184 13z"/>
  <path d="M120 173c-11.6 0-21-9.4-21-21s9.4-21 21-21 21 9.4 21 21-9.4 21-21 21zm0-32c-6.1 0-11 4.9-11 11s4.9 11 11 11 11-4.9 11-11-4.9-11-11-11zM248 173c-11.6 0-21-9.4-21-21s9.4-21 21-21 21 9.4 21 21-9.4 21-21 21zm0-32c-6.1 0-11 4.9-11 11s4.9 11 11 11 11-4.9 11-11-4.9-11-11-11zM112 269c-1.2 0-2.4-.5-3.3-1.3-2.1-1.8-2.2-5-.4-7.1C127.4 239.3 155 227 184 227s56.6 12.3 75.7 33.7c1.8 2.1 1.7 5.2-.4 7.1-.9.8-2.1 1.3-3.3 1.3-1.4 0-2.8-.6-3.7-1.7C235 248.1 210.1 237 184 237s-51 11.1-68.3 30.3c-.9 1.1-2.3 1.7-3.7 1.7z"/>
</svg>