<?xml version="1.0" encoding="utf-8"?>
<!-- Generator: Adobe Illustrator 22.0.0, SVG Export Plug-In . SVG Version: 6.00 Build 0)  -->
<svg version="1.1" id="Capa_1" xmlns="http://www.w3.org/2000/svg" xmlns:xlink="http://www.w3.org/1999/xlink" x="0px" y="0px"
	 viewBox="0 0 368 368" style="enable-background:new 0 0 368 368;" xml:space="preserve">
<style type="text/css">
	.st0{fill:#FFFFFF;}
</style>
<g>
	<g>
		<g>
			<path class="st0" d="M184,365C84.2,365,3,283.8,3,184S84.2,3,184,3s181,81.2,181,181S283.8,365,184,365z M184,13
				C89.7,13,13,89.7,13,184s76.7,171,171,171s171-76.7,171-171S278.3,13,184,13z"/>
			<path class="st0" d="M120,173c-11.6,0-21-9.4-21-21s9.4-21,21-21s21,9.4,21,21S131.6,173,120,173z M120,141c-6.1,0-11,4.9-11,11
				s4.9,11,11,11s11-4.9,11-11S126.1,141,120,141z"/>
			<path class="st0" d="M248,173c-11.6,0-21-9.4-21-21s9.4-21,21-21s21,9.4,21,21S259.6,173,248,173z M248,141c-6.1,0-11,4.9-11,11
				s4.9,11,11,11s11-4.9,11-11S254.1,141,248,141z"/>
			<path class="st0" d="M112,269c-1.2,0-2.4-0.5-3.3-1.3c-2.1-1.8-2.2-5-0.4-7.1C127.4,239.3,155,227,184,227s56.6,12.3,75.7,33.7
				c1.8,2.1,1.7,5.2-0.4,7.1c-0.9,0.8-2.1,1.3-3.3,1.3c-1.4,0-2.8-0.6-3.7-1.7C235,248.1,210.1,237,184,237s-51,11.1-68.3,30.3
				C114.8,268.4,113.4,269,112,269z"/>
		</g>
	</g>
</g>
</svg>
